# Made in Blockbench 5.1.4
mtllib crt_tv.mtl

o mesh
v 1.5 3 1.40625
v 1.3125 2.7375 -0.15625
v 1.5 0 1.40625
v 1.3125 0 -0.15625
v -1.5 3 1.40625
v -1.3125 2.7375 -0.15625
v -1.5 0 1.40625
v -1.3125 0 -0.15625
vt 0.09765625 0.61640625
vt 0 0.6328125
vt 0 0.4453125
vt 0.09765625 0.4453125
vt 0.51171875 0.37890625
vt 0.51171875 0.56640625
vt 0.4140625 0.55
vt 0.4140625 0.37890625
vt 0.5703125 1
vt 0.3828125 1
vt 0.39453125 0.900390625
vt 0.55859375 0.900390625
vt 0.55859375 0.796875
vt 0.5703125 0.89453125
vt 0.3828125 0.89453125
vt 0.39453125 0.796875
vt 0.1875 0.8125
vt 0.1875 1
vt 0 1
vt 0 0.8125
vt 0.1640625 0.80859375
vt 0 0.80859375
vt 0 0.63671875
vt 0.1640625 0.63671875
vn 0.9928768384869222 0 -0.11914522061843066
vn -0.9928768384869222 0 -0.11914522061843066
vn 0 0.9861798660721003 -0.16567821750011294
vn 0 -1 0
vn 0 0 1
vn 0 0 -1
usemtl m_802e8602-2152-7c5f-62a5-99db7a5a7532
f 2/1/1 1/2/1 3/3/1 4/4/1
f 7/5/2 5/6/2 6/7/2 8/8/2
f 5/9/3 1/10/3 2/11/3 6/12/3
f 4/13/4 3/14/4 7/15/4 8/16/4
f 3/17/5 1/18/5 5/19/5 7/20/5
f 6/21/6 2/22/6 4/23/6 8/24/6
o mesh
v 1.1875 2.25 0.5
v 1 1.9375 -1.5
v 1.1875 0.8125 0.5
v 1 0.8125 -1.4375
v -1.1875 2.25 0.5
v -1 1.9375 -1.5
v -1.1875 0.8125 0.5
v -1 0.8125 -1.4375
vt 0.621641796875 0.6796875
vt 0.49609375 0.69921875
vt 0.49609375 0.609375
vt 0.617752734375 0.609375
vt 0.640625 0.515625
vt 0.640625 0.60546875
vt 0.515625 0.5859375
vt 0.5195140625 0.515625
vt 0.4921875 0.6953125
vt 0.34375 0.6953125
vt 0.35546875 0.568359375
vt 0.48046875 0.568359375
vt 0.23828125 0.4375
vt 0.25 0.55859375
vt 0.1015625 0.55859375
vt 0.11328125 0.4375
vt 0.53125 0.703125
vt 0.53125 0.79296875
vt 0.3828125 0.79296875
vt 0.3828125 0.703125
vt 0.66015625 0.79296875
vt 0.53515625 0.79296875
vt 0.53515625 0.72265625
vt 0.66015625 0.72265625
vn 0.9956342260592882 0 -0.09334070869305827
vn -0.9956342260592882 0 -0.09334070869305827
vn 0 0.9880120337511016 -0.15437688027360963
vn 0 -1 0
vn 0 0 1
vn 0 -0.05547001962252291 -0.9984603532054125
usemtl m_802e8602-2152-7c5f-62a5-99db7a5a7532
f 10/25/7 9/26/7 11/27/7 12/28/7
f 15/29/8 13/30/8 14/31/8 16/32/8
f 13/33/9 9/34/9 10/35/9 14/36/9
f 12/37/10 11/38/10 15/39/10 16/40/10
f 11/41/11 9/42/11 13/43/11 15/44/11
f 14/45/12 10/46/12 12/47/12 16/48/12
o mesh
v 1.3125 2.38125 -0.14375
v 1.076645 2.0657606250000002 -0.625
v 1.3125 0.8250000000000001 -0.14375
v 1.076645 0.8062500000000001 -0.609375
v -1.31875 2.3875 -0.14375
v -1.095395 2.072010625 -0.625
v -1.31875 0.83125 -0.14375
v -1.095395 0.8125000000000001 -0.609375
vt 0.3169811243572612 0.35253630675213043
vt 0.33548416644651274 0.38671875
vt 0.23828125 0.38322663875708596
vt 0.23828125 0.35058645453381365
vt 0.404296875 0.301171875
vt 0.404296875 0.3984375
vt 0.37109375 0.378719140625
vt 0.3719796875 0.30000000000000004
vt 0.7355470582618393 0.90625
vt 0.5710935667381607 0.90625
vt 0.5857876655746791 0.8702654023092226
vt 0.721540661550196 0.8703032158346551
vt 0.35546875 0.4112224583918994
vt 0.384765625 0.396484375
vt 0.384765625 0.5609378978418027
vt 0.35546875 0.5469752122493283
vt 0.25390625 0.3939091269885091
vt 0.3515625 0.3941401610754762
vt 0.3515625 0.55859375
vt 0.25390625 0.558362715913033
vt 0.6519742878642463 0.51171875
vt 0.5162209914837166 0.51171875
vt 0.5159944621357537 0.43359375
vt 0.6517477585162834 0.43359375
vn 0.897958965429679 0 -0.4400791933328143
vn -0.9070683512407439 0 -0.4209833799301331
vn 0.0019854240907181105 0.8358635421923276 -0.5489336908269294
vn -0.002373250228196944 -0.9991383460709174 0.04143589137482099
vn 0 0 1
vn -0.0000356941440914948 -0.012404657397198503 -0.9999230586404069
usemtl m_802e8602-2152-7c5f-62a5-99db7a5a7532
f 18/49/13 17/50/13 19/51/13 20/52/13
f 23/53/14 21/54/14 22/55/14 24/56/14
f 21/57/15 17/58/15 18/59/15 22/60/15
f 20/61/16 19/62/16 23/63/16 24/64/16
f 19/65/17 17/66/17 21/67/17 23/68/17
f 22/69/18 18/70/18 20/71/18 24/72/18
o mesh
v 0.95 0.809375 -0.125
v 0.8125 0.809375 -1.275
v 0.95 -0.003124999999999989 -0.125
v 0.8125 -0.003124999999999989 -1.025
v -0.95 0.809375 -0.125
v -0.8125 0.809375 -1.275
v -0.95 -0.003124999999999989 -0.125
v -0.8125 -0.003124999999999989 -1.025
vt 0.588012109375 0.4296875
vt 0.515625 0.4296875
vt 0.515625 0.37890625
vt 0.57249765625 0.37890625
vt 0.662109375 0.3671875
vt 0.662109375 0.41796875
vt 0.58984375 0.41796875
vt 0.605358203125 0.3671875
vt 0.00019531250000000278 0.361328125
vt 0.1189453125 0.361328125
vt 0.1103515625 0.43359375
vt 0.0087890625 0.43359375
vt 0.2314453125 0.376953125
vt 0.2400390625 0.43359375
vt 0.1212890625 0.43359375
vt 0.1298828125 0.376953125
vt 0.689453125 0.91015625
vt 0.689453125 0.9609375
vt 0.5703125 0.9609375
vt 0.5703125 0.91015625
vt 0.671875 0.85546875
vt 0.5703125 0.85546875
vt 0.5703125 0.802734375
vt 0.671875 0.802734375
vn 0.9929278168066742 0 -0.11871963027036318
vn -0.9929278168066742 0 -0.11871963027036318
vn 0 1 0
vn 0 -1 0
vn 0 0 1
vn 0 -0.2940858488375231 -0.9557790087219501
usemtl m_802e8602-2152-7c5f-62a5-99db7a5a7532
f 26/73/19 25/74/19 27/75/19 28/76/19
f 31/77/20 29/78/20 30/79/20 32/80/20
f 29/81/21 25/82/21 26/83/21 30/84/21
f 28/85/22 27/86/22 31/87/22 32/88/22
f 27/89/23 25/90/23 29/91/23 31/92/23
f 30/93/24 26/94/24 28/95/24 32/96/24
o mesh
v 1.5 3 1.59375
v 1.5 3 1.40625
v 1.5 0.625 1.59375
v 1.5 0.625 1.40625
v -1.5 3 1.59375
v -1.5 3 1.40625
v -1.5 0.625 1.59375
v -1.5 0.625 1.40625
vt 0.40234375 0.5625
vt 0.390625 0.5625
vt 0.390625 0.4140625
vt 0.40234375 0.4140625
vt 0.3671875 0.25
vt 0.3671875 0.3984375
vt 0.35546875 0.3984375
vt 0.35546875 0.25
vt 0.53515625 0.70703125
vt 0.72265625 0.70703125
vt 0.72265625 0.71875
vt 0.53515625 0.71875
vt 0.76171875 0.98828125
vt 0.76171875 1
vt 0.57421875 1
vt 0.57421875 0.98828125
vt 0.37890625 0.8515625
vt 0.37890625 1
vt 0.19140625 1
vt 0.19140625 0.8515625
vt 0.37890625 0.84765625
vt 0.19140625 0.84765625
vt 0.19140625 0.69921875
vt 0.37890625 0.69921875
vn 1 0 0
vn -1 0 0
vn 0 1 0
vn 0 -1 0
vn 0 0 1
vn 0 0 -1
usemtl m_802e8602-2152-7c5f-62a5-99db7a5a7532
f 34/97/25 33/98/25 35/99/25 36/100/25
f 39/101/26 37/102/26 38/103/26 40/104/26
f 37/105/27 33/106/27 34/107/27 38/108/27
f 36/109/28 35/110/28 39/111/28 40/112/28
f 35/113/29 33/114/29 37/115/29 39/116/29
f 38/117/30 34/118/30 36/119/30 40/120/30
o plane
v 1.375 0.75 1.6
v 1.375 2.875 1.5999999999999996
v -1.375 0.75 1.6
v -1.375 2.875 1.5999999999999996
vt 0.33984375 0.5625
vt 0.33984375 0.6953125
vt 0.16796875 0.6953125
vt 0.16796875 0.5625
vn 0 2.220446049250313e-16 1
usemtl m_802e8602-2152-7c5f-62a5-99db7a5a7532
f 41/121/31 42/122/31 44/123/31 43/124/31